<mxfile host="www.draw.io" modified="2020-02-14T03:19:38.438Z" agent="Mozilla/5.0 (Macintosh; Intel Mac OS X 10_14_5) AppleWebKit/537.36 (KHTML, like Gecko) Chrome/79.0.3945.130 Safari/537.36" etag="JTTVonHBSUY5zMMPubio" version="12.7.0" type="github">
  <diagram id="T6PubaaEae6fENgZ4xwR" name="Page-1">
    <mxGraphModel dx="1411" dy="798" grid="1" gridSize="10" guides="1" tooltips="1" connect="1" arrows="1" fold="1" page="1" pageScale="1" pageWidth="2339" pageHeight="3300" math="0" shadow="0">
      <root>
        <mxCell id="0"/>
        <mxCell id="1" parent="0"/>
        <mxCell id="8h9rO2Y5-GKZASKepah--1" value="" style="ellipse;whiteSpace=wrap;html=1;aspect=fixed;" vertex="1" parent="1">
          <mxGeometry x="230" y="90" width="80" height="80" as="geometry"/>
        </mxCell>
        <mxCell id="8h9rO2Y5-GKZASKepah--2" value="&lt;font style=&quot;font-size: 19px&quot;&gt;A&lt;/font&gt;" style="text;html=1;strokeColor=none;fillColor=none;align=center;verticalAlign=middle;whiteSpace=wrap;rounded=0;" vertex="1" parent="1">
          <mxGeometry x="250" y="120" width="40" height="20" as="geometry"/>
        </mxCell>
        <mxCell id="8h9rO2Y5-GKZASKepah--3" value="" style="ellipse;whiteSpace=wrap;html=1;aspect=fixed;" vertex="1" parent="1">
          <mxGeometry x="490" y="90" width="80" height="80" as="geometry"/>
        </mxCell>
        <mxCell id="8h9rO2Y5-GKZASKepah--4" value="&lt;span style=&quot;font-size: 19px&quot;&gt;B&lt;/span&gt;" style="text;html=1;strokeColor=none;fillColor=none;align=center;verticalAlign=middle;whiteSpace=wrap;rounded=0;" vertex="1" parent="1">
          <mxGeometry x="510" y="120" width="40" height="20" as="geometry"/>
        </mxCell>
        <mxCell id="8h9rO2Y5-GKZASKepah--5" value="" style="ellipse;whiteSpace=wrap;html=1;aspect=fixed;" vertex="1" parent="1">
          <mxGeometry x="230" y="300" width="80" height="80" as="geometry"/>
        </mxCell>
        <mxCell id="8h9rO2Y5-GKZASKepah--6" value="&lt;span style=&quot;font-size: 19px&quot;&gt;C&lt;/span&gt;" style="text;html=1;strokeColor=none;fillColor=none;align=center;verticalAlign=middle;whiteSpace=wrap;rounded=0;" vertex="1" parent="1">
          <mxGeometry x="250" y="330" width="40" height="20" as="geometry"/>
        </mxCell>
        <mxCell id="8h9rO2Y5-GKZASKepah--7" value="" style="ellipse;whiteSpace=wrap;html=1;aspect=fixed;" vertex="1" parent="1">
          <mxGeometry x="490" y="300" width="80" height="80" as="geometry"/>
        </mxCell>
        <mxCell id="8h9rO2Y5-GKZASKepah--8" value="&lt;font style=&quot;font-size: 19px&quot;&gt;D&lt;/font&gt;" style="text;html=1;strokeColor=none;fillColor=none;align=center;verticalAlign=middle;whiteSpace=wrap;rounded=0;" vertex="1" parent="1">
          <mxGeometry x="510" y="330" width="40" height="20" as="geometry"/>
        </mxCell>
        <mxCell id="8h9rO2Y5-GKZASKepah--9" value="" style="endArrow=none;html=1;entryX=0.5;entryY=1;entryDx=0;entryDy=0;" edge="1" parent="1" source="8h9rO2Y5-GKZASKepah--5" target="8h9rO2Y5-GKZASKepah--1">
          <mxGeometry width="50" height="50" relative="1" as="geometry">
            <mxPoint x="230" y="450" as="sourcePoint"/>
            <mxPoint x="280" y="400" as="targetPoint"/>
          </mxGeometry>
        </mxCell>
        <mxCell id="8h9rO2Y5-GKZASKepah--10" value="" style="endArrow=none;html=1;entryX=0;entryY=0.5;entryDx=0;entryDy=0;exitX=1;exitY=0.5;exitDx=0;exitDy=0;" edge="1" parent="1" source="8h9rO2Y5-GKZASKepah--5" target="8h9rO2Y5-GKZASKepah--7">
          <mxGeometry width="50" height="50" relative="1" as="geometry">
            <mxPoint x="230" y="450" as="sourcePoint"/>
            <mxPoint x="280" y="400" as="targetPoint"/>
          </mxGeometry>
        </mxCell>
        <mxCell id="8h9rO2Y5-GKZASKepah--11" value="" style="endArrow=none;html=1;entryX=0.5;entryY=1;entryDx=0;entryDy=0;exitX=0.5;exitY=0;exitDx=0;exitDy=0;" edge="1" parent="1" source="8h9rO2Y5-GKZASKepah--7" target="8h9rO2Y5-GKZASKepah--3">
          <mxGeometry width="50" height="50" relative="1" as="geometry">
            <mxPoint x="230" y="450" as="sourcePoint"/>
            <mxPoint x="280" y="400" as="targetPoint"/>
          </mxGeometry>
        </mxCell>
        <mxCell id="8h9rO2Y5-GKZASKepah--12" value="" style="ellipse;whiteSpace=wrap;html=1;aspect=fixed;" vertex="1" parent="1">
          <mxGeometry x="700" y="300" width="80" height="80" as="geometry"/>
        </mxCell>
        <mxCell id="8h9rO2Y5-GKZASKepah--13" value="&lt;font style=&quot;font-size: 19px&quot;&gt;E&lt;/font&gt;" style="text;html=1;strokeColor=none;fillColor=none;align=center;verticalAlign=middle;whiteSpace=wrap;rounded=0;" vertex="1" parent="1">
          <mxGeometry x="720" y="330" width="40" height="20" as="geometry"/>
        </mxCell>
        <mxCell id="8h9rO2Y5-GKZASKepah--14" value="" style="endArrow=none;html=1;entryX=0;entryY=0.5;entryDx=0;entryDy=0;exitX=1;exitY=0.5;exitDx=0;exitDy=0;" edge="1" parent="1" source="8h9rO2Y5-GKZASKepah--7" target="8h9rO2Y5-GKZASKepah--12">
          <mxGeometry width="50" height="50" relative="1" as="geometry">
            <mxPoint x="230" y="450" as="sourcePoint"/>
            <mxPoint x="280" y="400" as="targetPoint"/>
          </mxGeometry>
        </mxCell>
        <mxCell id="8h9rO2Y5-GKZASKepah--17" value="" style="endArrow=none;html=1;entryX=1;entryY=1;entryDx=0;entryDy=0;exitX=0;exitY=0;exitDx=0;exitDy=0;" edge="1" parent="1" source="8h9rO2Y5-GKZASKepah--12" target="8h9rO2Y5-GKZASKepah--3">
          <mxGeometry width="50" height="50" relative="1" as="geometry">
            <mxPoint x="230" y="450" as="sourcePoint"/>
            <mxPoint x="280" y="400" as="targetPoint"/>
          </mxGeometry>
        </mxCell>
      </root>
    </mxGraphModel>
  </diagram>
</mxfile>
